<svg xmlns="http://www.w3.org/2000/svg" width="1200" height="630" viewBox="0 0 1200 630" role="img" aria-label="SkillGuard social preview">
  <title>SkillGuard social preview</title>
  <defs>
    <linearGradient id="bg" x1="0" x2="1" y1="0" y2="1">
      <stop offset="0%" stop-color="#07111f"/>
      <stop offset="54%" stop-color="#0f172a"/>
      <stop offset="100%" stop-color="#052e1b"/>
    </linearGradient>
  </defs>
  <rect width="1200" height="630" fill="url(#bg)"/>
  <rect x="64" y="64" width="1072" height="502" rx="28" fill="#0b1020" stroke="#22c55e" stroke-opacity="0.45" stroke-width="2"/>
  <g transform="translate(96 106)">
    <rect width="116" height="116" rx="26" fill="#16a34a"/>
    <path d="M58 17 95 31v29c0 26-14 44-37 56-23-12-37-30-37-56V31l37-14Z" fill="#ecfdf5"/>
    <path d="M40 59h36v11H40V59Zm0-21h36v11H40V38Zm0 42h25v11H40V80Z" fill="#0b1020"/>
  </g>
  <text x="244" y="150" fill="#f8fafc" font-family="Inter, Arial, sans-serif" font-size="58" font-weight="800">SkillGuard</text>
  <text x="244" y="205" fill="#86efac" font-family="Inter, Arial, sans-serif" font-size="28" font-weight="700">AI agent instruction files are supply-chain code</text>
  <text x="96" y="302" fill="#e2e8f0" font-family="Inter, Arial, sans-serif" font-size="36" font-weight="700">Scan AGENTS.md, skills, Cursor rules, package scripts, and MCP configs.</text>
  <g font-family="SFMono-Regular, Menlo, Consolas, monospace" font-size="24">
    <rect x="96" y="354" width="1008" height="118" rx="18" fill="#020617" stroke="#334155"/>
    <text x="128" y="402" fill="#a7f3d0">$ npx @buzzicra/skillguard scan . --preset strict</text>
    <text x="128" y="444" fill="#fca5a5">[HIGH] Unpinned MCP package installer</text>
  </g>
  <text x="96" y="526" fill="#cbd5e1" font-family="Inter, Arial, sans-serif" font-size="25">No token. No execution. SARIF, baselines, GitHub Action.</text>
</svg>
